<?xml version="1.0" encoding="UTF-8" standalone="no"?>
<!-- Created with Inkscape (http://www.inkscape.org/) -->

<svg
   version="1.1"
   id="svg2"
   width="1519.7943"
   height="1272.7264"
   viewBox="0 0 1519.7943 1272.7264"
   sodipodi:docname="Puzzle_House_Escape_Rooms_Standalone.svg"
   xml:space="preserve"
   inkscape:version="1.2.1 (9c6d41e, 2022-07-14)"
   xmlns:inkscape="http://www.inkscape.org/namespaces/inkscape"
   xmlns:sodipodi="http://sodipodi.sourceforge.net/DTD/sodipodi-0.dtd"
   xmlns="http://www.w3.org/2000/svg"
   xmlns:svg="http://www.w3.org/2000/svg"><defs
     id="defs6"><clipPath
       clipPathUnits="userSpaceOnUse"
       id="clipPath18"><path
         d="M 0,2000 H 2000 V 0 H 0 Z"
         id="path16" /></clipPath></defs><sodipodi:namedview
     id="namedview4"
     pagecolor="#505050"
     bordercolor="#eeeeee"
     borderopacity="1"
     inkscape:showpageshadow="0"
     inkscape:pageopacity="0"
     inkscape:pagecheckerboard="0"
     inkscape:deskcolor="#505050"
     showgrid="false"
     inkscape:zoom="0.287976"
     inkscape:cx="654.56844"
     inkscape:cy="927.1606"
     inkscape:window-width="1440"
     inkscape:window-height="876"
     inkscape:window-x="0"
     inkscape:window-y="24"
     inkscape:window-maximized="0"
     inkscape:current-layer="g14"><inkscape:page
       x="0"
       y="0"
       id="page8"
       width="1519.7943"
       height="1272.7264" /><inkscape:grid
       type="xygrid"
       id="grid724"
       originx="-517.18164"
       originy="-469.32381" /></sodipodi:namedview><g
     id="g10"
     inkscape:groupmode="layer"
     inkscape:label="Page 1"
     transform="matrix(1.3333333,0,0,-1.3333333,-517.18164,2197.3429)"
     style="display:inline"><g
       id="g12"
       style="display:inline;fill:#980609;fill-opacity:1"><g
         id="g14"
         clip-path="url(#clipPath18)"
         style="fill:#980609;fill-opacity:1"><path
           style="display:inline;fill:#980609;fill-opacity:1;stroke:none;stroke-width:0"
           d="m 510.99411,1141.7297 c -8.03546,1.1863 -15.68659,4.2739 -23.8594,5.0673 -15.02368,1.4594 -30.6187,-1.2212 -44.49455,-7.0165 -11.51442,-4.8084 -22.00082,-12.3647 -30.51489,-21.4677 -43.42984,-46.4346 -26.28106,-125.71522 33.73913,-148.45005 9.08269,-3.4429 19.27582,-5.85682 29.01819,-6.09627 12.09027,-0.29122 24.11347,1.57261 35.46667,5.81799 l 0.64485,-33.65246 V 869.27426 751.49065 714.60237 l -0.64485,-20.06204 c 6.60454,-1.9609 15.04948,-0.64716 21.92486,-0.64716 h 43.84971 144.44609 472.02918 158.6328 38.6909 c 2.9212,0 11.5557,-1.45612 13.5225,1.03546 2.6826,3.3976 0.6642,14.75531 0.6642,19.02658 v 52.42018 203.20908 c 5.6553,-0.97721 11.0463,-3.38466 16.7661,-4.34246 16.3082,-2.7375 32.7905,-1.35257 48.3636,4.37482 9.8533,3.63058 19.1391,9.20913 27.0837,16.06258 43.7207,37.71019 41.2122,107.34679 -3.8691,142.77639 -26.355,20.715 -57.6366,21.0354 -88.3443,12.6268 v 136.5513 37.5354 l -0.6642,15.4718 -7.7188,6.3435 -18.7006,13.2228 -68.354,48.7184 -245.6873,174.7359 -76.09218,54.1785 -20.63516,14.7026 -9.02788,5.4644 -8.38303,-4.7264 -19.34546,-13.8628 -74.80245,-53.2538 -250.20127,-178.3464 -67.70911,-48.1605 -18.05576,-12.9109 -7.51313,-6.1642 -0.22506,-15.4129 v -38.1825 -135.2571 m 868.61109,-44.007 c 15.6054,8.7199 27.8317,21.5207 46.4291,23.844 10.9367,1.3669 21.7121,0.8951 32.2425,-2.5957 8.7764,-2.909 17.2174,-7.6404 23.8594,-14.1392 36.6661,-35.8846 23.0856,-102.8568 -29.6631,-114.67403 -8.9762,-2.0062 -17.9912,-2.34272 -27.0836,-0.87366 -17.6495,2.85398 -31.6556,14.15349 -45.7843,24.30739 V 796.14487 739.84172 c 0,-4.51073 2.1603,-16.7421 -0.6641,-20.32091 -1.9152,-2.42686 -10.0532,-1.03546 -12.8777,-1.03546 h -38.6909 -134.1285 -34.8218 c -3.0373,0 -10.0339,-1.3008 -12.5101,0.66658 -2.6761,2.12916 -1.0318,12.30256 -1.0318,15.51249 v 45.94855 h 128.3249 32.2425 c 2.8502,0 9.0343,-1.15842 11.2203,1.03546 2.7019,2.71161 1.0318,12.16666 1.0318,15.79077 v 44.65422 178.61688 190.913 52.4202 c 0,5.6361 2.0441,16.2988 -0.6642,21.2962 -3.5467,6.5447 -15.8955,12.1272 -21.9055,16.4276 -18.0235,12.8921 -36.1631,25.6263 -54.1673,38.5508 -65.781,47.2228 -131.9554,93.9065 -197.9685,140.7993 -20.4418,14.5191 -40.906,29.0045 -61.26067,43.6421 -5.77978,4.156 -11.56536,8.3082 -17.41091,12.3705 -1.82364,1.2678 -4.52555,4.0299 -6.81992,4.1865 -3.05917,0.209 -7.59116,-4.5095 -9.94615,-6.2024 -8.77575,-6.3112 -17.65144,-12.4773 -26.43879,-18.7684 -33.69141,-24.1198 -67.57498,-47.9645 -101.24124,-72.1185 -33.41155,-23.9709 -66.83147,-48.0091 -100.59639,-71.4765 -8.46429,-5.8828 -16.76671,-12.012 -25.1491,-18.0132 -2.29115,-1.6399 -6.69224,-6.0691 -9.64694,-5.8406 -3.61566,0.2802 -7.78912,8.8292 -9.6824,11.5738 -5.82685,8.4442 -11.74527,16.8198 -17.60759,25.2394 -2.87732,4.1321 -7.04175,8.6338 -8.20248,13.5904 25.62307,15.8717 49.57274,35.3286 74.1576,52.7929 49.50116,35.163 98.90753,70.467 148.31519,105.762 20.18505,14.4194 40.43846,28.7417 60.61577,43.1715 5.58181,3.9917 11.13074,8.0481 16.76607,11.9609 2.21505,1.5377 4.96404,4.3535 7.73818,4.6822 3.60019,0.4265 8.20892,-4.347 10.96243,-6.2813 9.72367,-6.8308 19.29516,-13.8784 29.01819,-20.7092 37.98155,-26.6845 75.71815,-53.7314 113.49335,-80.7142 64.6332,-46.1699 129.3502,-92.222 194.0995,-138.2184 17.8494,-12.6805 35.731,-25.317 53.5224,-38.0823 5.8552,-4.2027 17.8043,-9.5799 21.2607,-15.9668 2.2827,-4.213 0.6641,-12.6883 0.6641,-17.4132 v -44.0071 -158.5548 m -434.62794,405.1238 v -52.4201 c 0,-6.3681 1.97581,-16.671 -0.38885,-22.5906 -1.19813,-2.9983 -5.49282,-5.0103 -7.99419,-6.8042 l -19.34546,-13.7768 c -24.88729,-17.8002 -49.55597,-38.7327 -76.09214,-53.9029 v -0.6471 c 5.28067,-4.8434 10.4846,-12.929 13.54182,-19.4149 l 25.1491,17.6546 49.0085,34.8562 19.99031,14.147 8.38303,5.1818 12.25212,-7.6792 30.9527,-22.0042 76.0922,-54.0795 42.56,-30.1423 14.0641,22.0036 33.0098,49.1843 c 10.4337,-2.4605 21.6283,-14.0428 30.3079,-20.2503 22.099,-15.8038 44.3527,-31.3874 66.4194,-47.2306 l 21.28,-15.1676 c 2.6955,-1.9272 7.3578,-4.136 8.641,-7.3653 1.3413,-3.3873 0.3869,-8.6312 0.3869,-12.2379 v -26.5336 -92.5443 -317.7569 c -6.1518,3.36525 -11.2074,9.95337 -16.1212,14.88475 l -29.0182,29.12232 c -4.7525,4.76959 -14.0319,11.08589 -16.3791,17.47339 -2.4376,6.64636 -0.3869,17.51222 -0.3869,24.59218 v 55.65599 189.61867 61.4805 c 0,6.3933 2.3988,18.8848 -0.6642,24.532 -3.5725,6.5913 -15.8633,12.0132 -21.9055,16.3305 -18.5137,13.2325 -36.9047,28.934 -56.7467,40.0328 -2.386,-5.0576 -5.9326,-9.5974 -9.0279,-14.2376 -1.0124,-1.5195 -3.1146,-3.7755 -2.7535,-5.7643 0.7609,-4.2052 11.646,-9.3916 15.0056,-11.7253 12.7745,-8.8803 25.3877,-18.0254 38.0461,-27.0734 3.7401,-2.6714 12.0973,-6.3933 13.3355,-11.1182 1.8958,-7.245 0.2063,-17.0715 0.2063,-24.567 v -52.4201 -169.55666 -62.12762 c 0,-6.51046 2.4698,-19.20779 -0.3869,-25.03225 -1.122,-2.28449 -5.2942,-1.50142 -7.3513,-1.50142 h -21.28 -90.2788 -379.171 v 239.45015 68.5993 c 0,7.6268 -2.66774,21.3039 0.38884,28.2648 1.16847,2.6605 5.08915,4.5004 7.34934,6.1254 6.42786,4.6227 12.89117,9.1917 19.34546,13.7742 18.0706,12.8307 36.1341,25.673 54.16729,38.5554 7.76978,5.5507 16.73898,14.4602 25.79395,17.4734 l 23.0269,-33.0053 11.79492,-18.1206 c -19.86133,-11.1085 -38.21244,-26.8838 -56.74668,-40.1241 -6.14412,-4.389 -18.95855,-10.2018 -22.55164,-16.8844 -2.48848,-4.6285 -0.66291,-14.1587 -0.66291,-19.3567 v -47.89 -174.73393 h 139.93216 c 3.261,24.30096 10.16797,48.43363 14.96049,72.48223 1.72368,8.6526 6.15185,19.6737 5.59599,28.4726 -0.256,4.0518 -6.20795,6.8521 -8.94921,9.2499 -5.49088,4.8026 -9.52634,10.783 -12.73705,17.2863 -14.67482,29.7223 3.91617,67.3658 35.95161,74.5435 34.5368,7.7381 66.62574,-19.147 65.76814,-54.4814 -0.3031,-12.3026 -5.7392,-24.3735 -13.87395,-33.4422 -3.18297,-3.5471 -11.32419,-7.4935 -12.7564,-11.9194 -1.91971,-5.9326 3.12172,-18.481 4.48686,-24.532 4.01934,-17.8293 7.4925,-35.81399 11.18555,-53.71451 1.24644,-6.0445 1.38704,-17.5187 5.12204,-22.4436 2.7599,-3.64353 15.773,-1.50142 20.029,-1.50142 h 59.3261 42.56 c 4.1399,0 13.0453,-1.6891 16.5597,0.66658 2.5149,1.68262 1.496,7.0929 1.496,9.68802 v 27.828 115.19493 62.1276 c 0,7.1473 2.3279,19.1722 -0.3869,25.7739 -1.5025,3.6462 -7.4931,6.4005 -10.5755,8.6164 -9.4212,6.7751 -18.907,13.4564 -28.3733,20.1617 -35.0927,24.8491 -70.1273,49.7875 -105.1104,74.7893 -10.5168,7.5155 -20.96077,15.1779 -31.59754,22.5213 -2.86571,1.9784 -7.97098,7.2819 -11.60728,7.1511 -2.47557,-0.089 -5.17942,-2.8747 -7.09334,-4.2512 l -16.76606,-11.9278 c -14.15056,-10.121 -28.27468,-20.3158 -42.56001,-30.2445 -6.72964,-4.6764 -13.30839,-10.5637 -20.63516,-14.2214 l -35.15392,50.4787 -13.20973,20.062 c -11.51055,-3.894 -22.98369,-15.5953 -32.88728,-22.65 -22.97467,-16.3668 -46.05315,-32.5873 -68.9988,-48.9967 -8.36176,-5.9798 -16.7867,-11.869 -25.1491,-17.8501 -3.17137,-2.2683 -8.40367,-4.7573 -10.29952,-8.283 -1.32775,-2.4689 -0.66291,-6.2878 -0.66291,-9.002 v -20.0621 -74.4237 -269.86683 h 441.07645 63.1952 c 6.9192,0 19.5776,2.45274 25.7939,-0.66658 4.3979,-2.20682 8.1574,-7.52003 11.6073,-10.98235 l 24.5043,-24.59218 16.766,-16.82623 c 2.6633,-2.67278 6.5646,-5.39734 7.7382,-9.06028 h -154.7637 l 0.6449,-64.71627 v -15.5319 l -1.122,-5.80505 -10.4853,-0.66658 h -27.7285 -107.6897 l -419.79648,0.64716 c 11.36482,16.19201 29.2368,29.98952 43.20486,44.00706 4.91375,4.93138 11.47573,14.6453 18.05577,17.0851 8.10252,2.99636 21.66046,0.3883 30.30788,0.3883 h 68.99881 234.08006 112.2037 25.7939 c 2.8438,0 7.8349,-0.97075 8.8215,2.62748 0.9867,3.59822 1.8443,18.24351 -0.8254,20.92924 -2.186,2.19388 -8.3701,1.03546 -11.2203,1.03546 H 1052.0221 904.99664 696.06568 642.54324 c -4.37594,0 -16.12896,-2.09681 -19.60147,0.66658 -1.81782,1.44317 -1.03369,5.70797 -1.03369,7.74653 v 21.35637 c 0,30.03482 -0.21538,60.0114 1.24069,89.95562 1.19297,24.52099 -0.59584,49.79269 -0.59584,74.42371 0,63.86074 -0.64485,127.74794 -0.64485,191.56014 v 58.8918 c 0,6.1112 -2.24859,17.8248 0.66291,23.2396 1.89521,3.5258 7.12815,6.0148 10.29952,8.2831 7.88456,5.6393 15.83942,12.6882 24.50425,17.0145 -2.42076,5.1126 -6.31178,9.6389 -9.58181,14.2376 -1.03369,1.4535 -2.34789,4.3793 -4.17024,4.956 -2.89666,0.917 -9.10848,-5.2213 -11.39705,-6.8224 -8.01353,-5.6083 -15.90326,-11.3991 -23.8594,-17.0896 -3.17137,-2.2683 -8.40367,-4.7573 -10.29952,-8.2831 -2.55941,-4.7599 -0.66291,-14.653 -0.66291,-20.0038 v -48.5372 c 0,-95.7076 -0.64485,-191.5213 -0.64485,-287.34021 0,-29.93775 0.64485,-59.9661 0.64485,-89.95562 0,-12.25079 2.75802,-28.26159 -0.20506,-40.12408 -1.47154,-5.88919 -10.45042,-11.98546 -14.62646,-16.17907 l -30.95273,-31.06381 c -4.62615,-4.64016 -9.50507,-11.44184 -15.47637,-14.23758 v 275.69127 c -16.75833,-11.3447 -31.41122,-23.1425 -52.23274,-25.12929 -7.2481,-0.69247 -14.88375,0.16826 -21.92485,1.9156 -49.08124,12.18609 -64.63086,73.85679 -32.51392,110.57099 5.93454,6.7836 13.9397,12.3686 22.19634,15.9124 10.07963,4.3257 20.68481,5.908 31.59758,5.4284 22.10993,-0.972 34.29434,-15.7053 52.87759,-24.5669 v 158.5548 43.3599 c 0,4.8926 -1.68434,13.6972 0.6629,18.0624 2.45236,4.5612 10.02547,8.1134 14.16862,11.0593 11.28808,8.0281 22.29048,16.449 33.53213,24.5016 10.07576,7.2172 20.24502,14.3016 30.30789,21.5382 3.22488,2.3195 8.78477,8.0954 12.83893,8.3995 3.77366,0.2835 8.41399,-9.653 10.30082,-12.3731 9.59276,-13.8305 19.17264,-27.6875 28.90534,-41.4184 2.25116,-3.1762 8.59325,-16.0457 13.0872,-14.2693 6.81798,2.6961 13.37287,9.3761 19.34288,13.6215 13.53537,9.6259 27.12685,19.1696 40.62546,28.8505 45.64562,32.7335 91.71296,64.8755 137.35277,97.6193 14.78444,10.6077 29.69334,21.0419 44.49455,31.6269 7.26487,5.1954 15.01466,12.5116 23.21456,15.9907 m 25.79394,0 125.7455,-89.4896 50.2982,-36.0599 v -0.6472 l -34.177,-50.4787 c -10.9495,4.226 -21.2929,14.6291 -30.9527,21.3402 -24.8976,17.3064 -49.4148,35.1947 -74.1576,52.7243 -8.83187,6.2568 -17.64179,12.5459 -26.43882,18.8545 -3.38932,2.4301 -8.91439,4.954 -10.94437,8.7432 -2.20216,4.1094 -0.66291,12.1757 -0.66291,16.7686 v 40.7712 c 0,4.8065 -1.66886,13.5542 1.2897,17.4734 M 944.97726,1289.93 v -108.7233 c -45.29288,-9.3774 -75.20999,-53.5249 -62.27497,-99.0159 2.50781,-8.8196 7.04239,-17.3032 12.55649,-24.5922 2.39432,-3.1659 8.40689,-7.5071 8.72674,-11.6554 0.52297,-6.7887 -2.95534,-15.3636 -4.36627,-21.9971 -3.20619,-15.0853 -6.34854,-30.19657 -9.45413,-45.30135 h -95.4376 v 143.67015 42.0655 c 0,5.3954 -1.56182,13.6908 0.38884,18.7419 1.45156,3.7574 7.43704,6.4612 10.57359,8.7114 9.01047,6.4652 18.00482,12.9562 27.08364,19.3237 25.2426,17.7031 50.35817,35.6107 75.44729,53.5333 11.27518,8.0545 23.80717,20.3137 36.75638,25.2393 m 24.50424,0 c 4.74351,-1.1286 8.97114,-5.1469 12.89698,-7.9543 7.7298,-5.5274 15.49893,-10.9985 23.21452,-16.5473 25.91,-18.6311 52.0974,-36.8772 78.0267,-55.4741 8.7829,-6.2982 17.656,-12.4695 26.4388,-18.7677 2.9857,-2.1402 8.3379,-4.6279 9.8404,-8.151 1.2961,-3.0372 0.4772,-7.6424 0.4772,-10.8892 v -24.5922 -84.7783 -58.8918 c 0,-6.19335 2.3343,-18.19175 -0.3869,-23.73793 -0.9351,-1.90266 -3.6757,-1.49495 -5.4167,-1.50142 h -15.4764 -55.457 c -3.9142,0 -16.0116,-1.99973 -18.7393,1.03546 -1.7411,1.93502 -1.7862,6.21276 -2.2828,8.67198 -1.4315,7.12526 -2.9921,14.22461 -4.4172,21.35641 -1.6379,8.206 -3.3532,16.4185 -5.1394,24.5921 -0.7738,3.5271 -2.8116,8.7109 -2.0764,12.2961 0.69,3.3718 4.4817,5.8743 6.5645,8.4131 4.3528,5.31 8.0348,11.2458 10.9431,17.4734 11.9039,25.5054 7.7511,56.9749 -9.4922,78.9539 -8.0993,10.3184 -18.295,18.2875 -30.17244,23.745 -4.28373,1.9687 -15.93421,3.0275 -18.68255,6.5021 -1.4148,1.7887 -0.66291,5.7953 -0.66291,7.9355 v 20.7092 z"
           id="path738" /></g></g></g></svg>
